<svg xmlns="http://www.w3.org/2000/svg" width="256" height="256"><path fill="#1976D2" fill-opacity=".125" fill-rule="evenodd" d="M0 128.004v128.004l128.25-.254 128.25-.254.254-127.75L257.008 0H0zm.485.496c0 70.4.119 99.053.265 63.672.146-35.38.146-92.98 0-128C.604 29.153.485 58.1.485 128.5"/><path fill="#1976D2" fill-opacity=".476" fill-rule="evenodd" d="M0 128.004v128.004l128.25-.254 128.25-.254.254-127.75L257.008 0H0zm.485.496c0 70.4.119 99.053.265 63.672.146-35.38.146-92.98 0-128C.604 29.153.485 58.1.485 128.5m119.707-95.787c-1.868.357-2.083.713-1.128 1.864.939 1.131.848 1.423-.442 1.423-.892 0-1.622-.661-1.622-1.469 0-1.594-2.956-.992-4.186.852-.378.566-2.628 1.048-5 1.073-3.733.038-4.275.313-4.022 2.044.219 1.502.061 1.659-.631.633-.751-1.112-1.597-1.144-4.542-.172-1.991.657-3.619 1.432-3.619 1.724 0 .291.713.256 1.584-.079.946-.363 1.43-.149 1.203.532-.208.626-2.355 1.911-4.769 2.855s-3.783 1.919-3.04 2.166c1.546.516-5.224 4.841-7.577 4.841-2.519 0-5.326 3.428-5.584 6.82-.155 2.035-.691 3.059-1.449 2.768-.661-.254-1.47.235-1.797 1.086-.445 1.161-.152 1.378 1.168.866 4.612-1.786 18.985-5.6 26.416-7.01 17.266-3.275 39.93-3.007 55.845.661 9.534 2.197 21.014 5.978 20.529 6.761-.278.452.33 1.039 1.352 1.307 2.278.595 2.37 5.315.1 5.103-.814-.077-5.531-1.333-10.481-2.792-26.769-7.892-53.879-7.907-81-.044-20.879 6.052-34.39 13.552-42.096 23.364-5.616 7.151-7.762 13.523-7.952 23.61-.205 10.877-.03 10.331-3.918 12.185-3.955 1.886-6.534 6.452-6.534 11.567 0 3.95 1.797 9.748 3.021 9.748.454 0 2.21 1.165 3.902 2.589 2.642 2.223 3.101 3.318 3.245 7.75.141 4.326.232 4.555.56 1.411.496-4.735 2.272-4.931 2.272-.25 0 1.925.197 3.5.438 3.5s1.929-1.392 3.75-3.094c1.822-1.701 6.462-4.565 10.312-6.364 3.85-1.798 10.48-4.938 14.734-6.977 4.659-2.233 9.916-3.931 13.221-4.272 5.149-.532 5.87-.319 11.765 3.48 7.496 4.831 14.005 7.136 22.346 7.915 11.038 1.031 22.898-1.658 19.934-4.518-.55-.531-11.35-2.838-24-5.128-23.547-4.261-31.231-6.316-40-10.7-10.501-5.25-15.546-11.058-17.697-20.375-.964-4.177-.881-5.873.503-10.237C60.481 85.407 81.707 73.904 114 69.922c15.534-1.915 45.752-.011 59 3.719 6.473 1.822 8.428 3.139 7.076 4.768-1.424 1.715 1.412 6.633 5.719 9.914 3.226 2.459 4.271 2.739 8.077 2.171l4.372-.653-2.82 3.923c-2.539 3.533-18.31 15.227-22.674 16.814-3.487 1.267-1.639 3.295 5 5.489 17.078 5.643 25.685 12.291 28.83 22.269 1.554 4.931 1.621 6.448.544 12.296-1.458 7.913-2.982 11.098-7.925 16.569-6 6.642-18.558 13.629-31.699 17.638-8.696 2.652-29.251 6.149-36.191 6.156-5.765.006-8.416 1.883-3.118 2.208 1.82.111-2.091.495-8.691.852-8.122.439-4.083.574 12.5.416 31.972-.303 47.791-3.059 65.679-11.442C212.35 176.154 219 167.606 219 155.623c0-3.536.566-4.513 4.75-8.195 4.49-3.95 4.75-4.456 4.75-9.238 0-4.234-.479-5.558-2.937-8.124-1.615-1.686-3.512-3.066-4.215-3.066-2.416 0-3.348-3.889-3.348-13.966 0-11.732-.828-14.231-7.374-22.239-4.171-5.103-4.476-5.805-2.894-6.651 2.291-1.227 3.481-1.212 5.018.063 2.021 1.678 1.438-.093-1.161-3.524-1.327-1.751-2.633-4.533-2.903-6.183-.617-3.768-1.698-6.5-2.572-6.5-.37 0-2.399-1.687-4.51-3.75-2.681-2.621-6.136-4.528-11.471-6.335-4.198-1.421-7.553-2.996-7.454-3.5.26-1.332-2.723-4.372-4.048-4.125-.622.115-1-.408-.84-1.163.185-.873-.269-1.157-1.25-.781-1.047.402-1.541-.004-1.541-1.266 0-1.099-.658-1.801-1.612-1.719-.886.077-2.123-.761-2.75-1.861-1.416-2.489-2.921-3.612-3.612-2.697-.989 1.31-3.461.699-5.75-1.423-1.686-1.562-3.404-2.068-6.532-1.922-2.334.108-6.494-.429-9.244-1.195-6.641-1.85-8.845-2.028-9.769-.792-.494.661-1.236.421-2.075-.673-.877-1.143-2.072-1.502-3.638-1.093-1.817.476-2.151.3-1.514-.797.484-.834.445-1.068-.094-.575-.5.459-.92 1.359-.932 2-.013.642-.913 1.012-2 .822-2.752-.48-3.166-1.108-1.449-2.194 1.286-.813 1.282-.915-.029-.81-.825.067-2.539.32-3.808.562M68.558 63.907c-.309.498.34.671 1.441.383 2.335-.611 2.63-1.29.56-1.29-.793 0-1.693.408-2.001.907m70.925 42.066c1.02 1.65 8.369 3.209 10.226 2.17 1.374-.769.961-1.141-2.264-2.036-4.897-1.36-8.76-1.425-7.962-.134m-41.67 87.71c.721.289 1.584.253 1.916-.079.332-.332-.258-.568-1.312-.525-1.165.048-1.402.285-.604.604m35 0c.721.289 1.584.253 1.916-.079.332-.332-.258-.568-1.312-.525-1.165.048-1.402.285-.604.604"/><path fill="#1976D2" fill-opacity=".418" fill-rule="evenodd" d="M0 128.004v128.004l128.25-.254 128.25-.254.254-127.75L257.008 0H0zm.485.496c0 70.4.119 99.053.265 63.672.146-35.38.146-92.98 0-128C.604 29.153.485 58.1.485 128.5M130.439 5.067c-1.066 1.179-1.826 2.321-1.689 2.538.723 1.142.069 2.395-1.25 2.395-.825 0-1.5-.873-1.5-1.941s-.445-2.216-.989-2.552c-.552-.341-.742.03-.431.84.657 1.714-1.153 3.153-2.08 1.653-.351-.568-1.079-.76-1.618-.427-.627.387-.634 1.022-.019 1.766.713.863-1.061 1.197-6.899 1.3-6.515.116-7.935-.141-8.296-1.5-.285-1.07-.476-.837-.552.67-.064 1.27-.519 2.06-1.011 1.756-.493-.305-1.164.147-1.493 1.004-.329.857-.979 1.322-1.445 1.034-.465-.287-2.439.331-4.387 1.375-1.974 1.058-4.485 1.65-5.675 1.339-1.674-.437-1.999-.206-1.509 1.074.463 1.206.206 1.47-.985 1.013-1.078-.413-1.611-.075-1.611 1.021 0 1.713-4.131 3.859-5 2.598-.275-.399-1.753-.958-3.285-1.242-2.092-.388-3.051-.022-3.85 1.472-.768 1.433-.758 1.799.035 1.309 1.595-.986 1.348 1.129-.453 3.878-.854 1.303-2.654 2.646-4 2.984-1.346.338-2.447 1.307-2.447 2.154s-.372 1.31-.827 1.029c-.454-.281-2.945.562-5.534 1.873-2.59 1.311-4.88 2.302-5.09 2.202-1.258-.599-1.345 1.242-.108 2.269 1.284 1.066 1.054 1.603-1.661 3.887-1.732 1.458-3.967 2.513-4.965 2.344-1.056-.179-1.815.295-1.815 1.133 0 .792-.67 1.996-1.489 2.676-.819.68-1.272 1.587-1.006 2.018.266.43-.181 1.037-.994 1.348a1.58 1.58 0 0 0-.918 2.026c.371.964-.227 1.608-1.767 1.901l-2.326.444 2.25.136c2.939.178 2.839 1.679-.427 6.392-2.875 4.148-5.765 6.207-7.344 5.231-.545-.337-.979.576-.979 2.061 0 1.89.413 2.508 1.417 2.122.78-.299 1.675.126 1.989.945.322.84.14 1.223-.417.878-.885-.547-1.479 1.596-1.072 3.862.084.471-.254 1.371-.752 2-.497.63-1.448 2.833-2.112 4.895C31.388 88.313 30.375 90 29.8 90c-.664 0-.616.517.133 1.419.927 1.117.819 1.62-.506 2.362-1.21.677-1.35 1.149-.496 1.677.855.527.68 1.12-.621 2.106-1.727 1.309-1.718 1.375.19 1.42 1.524.035 1.674.253.628.916-.754.478-1.163 1.483-.907 2.234.255.751-.358 2.954-1.364 4.894-1.005 1.941-1.625 4.581-1.377 5.867.248 1.287-.221 3.636-1.041 5.222-.819 1.586-1.238 2.883-.929 2.883.308 0 .027.997-.625 2.216-1.07 1.999-.871 1.95 2.041-.5 1.775-1.494 3.582-2.716 4.014-2.716.433 0 1.012-4.288 1.286-9.529.44-8.407.929-10.4 4.156-16.929 8.417-17.03 29.292-29.22 62.963-36.766 8.619-1.932 13.028-2.276 29.155-2.276h19l5.5 3.818 5.5 3.818-8-.818c-12.999-1.329-35.064-.834-45.289 1.015-20.326 3.677-42.187 12.599-51.974 21.213C40.992 92.563 37 101.39 37 115.027c0 6.154-.36 7.989-1.829 9.318-1.006.91-2.323 1.655-2.927 1.655-.604 0-2.032 1.186-3.171 2.635-1.608 2.043-2.073 4.074-2.073 9.045 0 6.849-.436 6.102 7.75 13.277 1.829 1.602 2.25 3.016 2.25 7.547 0 9.323 3.703 14.579 15.667 22.24 29.678 19.003 107.567 20.301 145.705 2.429C212.769 176.426 219 168.422 219 156.674c0-3.722.52-5.075 2.74-7.134 1.507-1.397 3.07-2.54 3.474-2.54 1.373 0 3.786-5.887 3.772-9.2-.023-5.618-.987-7.402-5.563-10.294-2.793-1.766-4.468-3.572-4.544-4.901-.067-1.158-.253-6.38-.413-11.605-.161-5.225-.759-10.709-1.33-12.187l-1.038-2.686 3.701 2.506c4.627 3.134 5.044 4.192 5.131 13.018.07 7.103.094 7.166 3.616 9.244 2.198 1.296 4.28 3.71 5.478 6.348l1.932 4.257.022-3.309c.012-1.848-.399-3.049-.931-2.72-1.282.792-3.717-8.648-3.088-11.971.104-.55 1.064.8 2.132 3l1.943 4-.629-3.5c-.347-1.925-.692-4.4-.767-5.5-.076-1.1-.588-2.331-1.138-2.735-.619-.455-.524-.74.25-.75.688-.008 1.25-.513 1.25-1.122 0-.609-.579-.885-1.286-.614-.767.295-1.285-.266-1.285-1.393 0-1.037.691-1.922 1.535-1.965.845-.043 1.039-.284.431-.535-.607-.251-.938-1.678-.736-3.171.318-2.34.239-2.439-.575-.715-.911 1.931-.946 1.924-1.014-.219-.052-1.646-.499-2.053-1.734-1.58-1.06.407-1.42.244-.993-.447.369-.597.219-2.275-.333-3.727-.552-1.453-.603-2.394-.114-2.091.49.303 1.229-.684 1.642-2.193 1.088-3.974 1.232-6.219.363-5.682-.416.257-1.052-.462-1.413-1.599-.524-1.652-.941-1.831-2.072-.892-.93.772-1.416.81-1.416.111 0-.584.533-1.392 1.184-1.794.813-.503.579-.969-.75-1.489-1.605-.628-1.646-.769-.243-.828.93-.038 1.969.38 2.309.93.955 1.545 2.507 1.181 1.884-.442-.304-.792-1.528-1.58-2.719-1.75-1.191-.169-2.165-.983-2.165-1.808 0-.825-.9-2.249-2-3.164s-1.673-1.992-1.274-2.392c.399-.401 1.422-.151 2.273.555 1.28 1.062 1.452 1.037.997-.148-.302-.788-2-1.994-3.773-2.681-2.919-1.13-3.061-1.37-1.508-2.543 1.358-1.027 1.462-1.57.5-2.609-.97-1.047-.913-1.166.285-.589.825.398.485-.173-.756-1.268-1.563-1.38-1.87-2.146-1-2.497.861-.347.781-.531-.253-.585-1.669-.087-4.533-3.957-4.194-5.666.119-.597-.912-1.6-2.291-2.228-1.799-.82-2.506-.832-2.506-.041 0 .737-.495.69-1.5-.144-.825-.685-1.5-2.064-1.5-3.066 0-1.001-1.351-2.619-3.001-3.594-1.651-.975-3.223-2.463-3.494-3.306-.272-.844-1.784-2.396-3.362-3.45-2.06-1.376-2.731-2.504-2.381-4 .472-2.015.44-2.022-.976-.194-1.349 1.742-1.516 1.757-2.118.187-.36-.937-1.107-1.424-1.661-1.081-.554.342-1.007.176-1.007-.37 0-.545.934-1.288 2.075-1.65 3.114-.988 1.765-1.528-1.581-.633-3 .803-9.505-1.733-13.333-5.197-1.686-1.526-14.106-6.695-17.161-7.143-.825-.121-2.759-.731-4.299-1.355-1.539-.625-4.76-1.21-7.157-1.3-3.367-.128-4.232-.497-3.8-1.622.424-1.107.043-1.293-1.593-.774-1.453.461-2.161.255-2.183-.635-.02-.822-.584-.587-1.5.624-1.474 1.949-1.996 1.144-1.511-2.327.121-.871-.382-1.165-1.356-.791-.858.329-1.921-.073-2.385-.902-.71-1.268-1.134-1.169-2.777.646m28.311 4.232c-1.512.598-2.75 1.498-2.75 2.001 0 .503.732.633 1.627.29.894-.344 2.148-.191 2.786.338.821.681 1.219.247 1.362-1.483.112-1.345.095-2.397-.036-2.339-.132.059-1.477.596-2.989 1.193M78 16.902c0 1.038 1.902 2.541 2.466 1.948.183-.192-.297-.93-1.067-1.639-.769-.71-1.399-.849-1.399-.309m116.813 7.781c.721.289 1.584.253 1.916-.079.332-.332-.258-.568-1.312-.525-1.165.048-1.402.285-.604.604m-86.414 46.702c-26.617 4.369-47.381 16.978-50.289 30.538-2.436 11.357 3.138 21.121 15.677 27.465 8.522 4.312 19.316 6.932 54.213 13.158 10.377 1.852 14 3.499 14 6.367 0 1.396-1.64 2.446-6.5 4.162-3.575 1.262-6.5 2.624-6.5 3.027s-2.138 1.557-4.75 2.565c-3.585 1.384-7.448 1.829-15.75 1.816-9.793-.015-11.627-.309-16.711-2.678C86.214 155.208 79 149.12 79 147.012c0-.58 1.125-1.567 2.5-2.194 1.375-.626 2.5-1.517 2.5-1.979 0-2.021-4.627-.344-19.071 6.911-16.27 8.172-18.024 9.794-16.608 15.36.689 2.709 10.354 9.596 18.179 12.952 15.398 6.605 31.391 9.435 52.5 9.29 38.051-.261 67.153-8.719 80.295-23.335 7.072-7.866 9.501-17.784 6.256-25.549-1.961-4.693-3.582-4.508-2.47.282 1.189 5.117 1.161 5.269-.831 4.598-4.421-1.488-10.826-4.83-11.55-6.027-.44-.726-1.424-1.321-2.188-1.321-.764 0-2.867-1.35-4.673-3-1.807-1.65-3.602-3-3.99-3-.389 0-1.301-.562-2.028-1.25-.726-.687-3.346-2.351-5.821-3.697-7.153-3.891-8.087-4.32-20-9.198-3.025-1.239-6.253-3.092-7.173-4.118-.981-1.094-5.22-2.702-10.25-3.887-4.717-1.112-8.577-2.378-8.577-2.814 0-3.257 10.692-4.947 19.873-3.141 3.266.643 8.788 2.326 12.27 3.741 9.202 3.739 13.643 3.07 23.781-3.586 10.938-7.181 12.059-8.723 5.899-8.115-.922.091-4.621-2.332-8.22-5.385-3.598-3.052-6.8-5.55-7.115-5.55-.314 0-1.538-.9-2.718-2-1.181-1.1-3.161-2-4.4-2-1.238 0-2.53-.45-2.87-1-.34-.55-1.44-1-2.444-1-1.005 0-3.341-.698-5.191-1.551-3.259-1.502-3.082-1.533 5.635-1.016 5.375.319 8.396.181 7.5-.344-5.423-3.176-45.619-4.999-59.601-2.704m120.047 12.702c-.369.598-.171 1.588.441 2.2.817.817 1.113.528 1.113-1.087 0-2.415-.519-2.787-1.554-1.113M20.813 115.683c.721.289 1.584.253 1.916-.079.332-.332-.258-.568-1.312-.525-1.165.048-1.402.285-.604.604m4.79 39.15c-.283.459.12.834.897.834s1.18-.375.897-.834c-.283-.458-.687-.833-.897-.833-.21 0-.614.375-.897.833m200.397 4c0 2.292.422 4.167.937 4.167.519 0 .679-1.673.359-3.75-.802-5.193-1.296-5.352-1.296-.417m-9.128 20.917c-1.214 1.548-1.189 1.607.22.509.876-.683 1.96-.908 2.41-.5.45.407.495.179.099-.509-.929-1.616-1.093-1.586-2.729.5m-176.457 3.388c-.436.705-.292.904.361.5.597-.369 1.368-.213 1.714.346.345.559.151 1.016-.431 1.016S41 185.48 41 186.067c0 .611.852.797 1.992.436 1.499-.476 2.281.002 3.16 1.932 1.233 2.705 3.4 3.41 4.092 1.332.227-.679-1.198-2.391-3.166-3.805-5.412-3.89-5.882-4.089-6.663-2.824M211 184.165c-1.375 1.155-2.376 2.523-2.225 3.042.151.518-.172.665-.719.328-.546-.338-3.144.379-5.774 1.591-2.63 1.213-6.807 3-9.282 3.971l-4.5 1.766 3.624-.204c1.992-.112 4.311-.775 5.152-1.473 1.238-1.027 1.618-1.023 1.992.022.325.909 1.061.62 2.477-.973 1.359-1.527 2.599-2.04 3.809-1.576 1.449.556 1.663.319 1.117-1.235-.628-1.788-.581-1.802.675-.19 1.53 1.963 2.654 1.345 2.654-1.46 0-1.04.403-1.643.895-1.339.493.305 1.153-.119 1.469-.941.315-.822 1.739-1.494 3.164-1.494 1.472 0 2.323-.432 1.972-1-.991-1.604-3.802-1.099-6.5 1.165m-156.621 7.306c1.66 1.542 3.251 2.299 3.76 1.79.508-.508-.71-1.638-2.879-2.671l-3.76-1.791zm97.355 33.779c-.3.784.406 1.25 1.893 1.25 2.712 0 3.128-.996.791-1.893-2.101-.806-2.13-.799-2.684.643m-50.719 1.5c.036 1.725 1.846 3.454 2.922 2.789.879-.543.876-1.059-.011-2.128-1.254-1.512-2.936-1.893-2.911-.661m22.558 1.145c-1.724.676-1.75.823-.25 1.399.922.354 1.677.181 1.677-.384 0-.566.52-.707 1.155-.315.715.443.883.275.44-.44-.392-.635-.799-1.123-.904-1.085-.105.039-1.058.41-2.118.825M128 228c0 .55.702 1 1.559 1s1.281-.45.941-1c-.34-.55-1.041-1-1.559-1s-.941.45-.941 1m6.171 1.646c-.79.855-2.143 1.18-3.336.802-1.744-.554-1.869-.379-.952 1.332.579 1.084 1.969 2.209 3.087 2.502 1.118.292 1.798.151 1.51-.314-.287-.465.103-1.21.866-1.657.779-.455 1.117-1.534.771-2.457-.535-1.426-.795-1.454-1.946-.208m-28.607 2.647c.376.986.935 1.541 1.243 1.233.308-.307.001-1.114-.683-1.793-.988-.98-1.102-.865-.56.56"/><path fill="#1976D2" fill-opacity=".397" fill-rule="evenodd" d="M.044 62.505c.068 60.095.14 62.467 1.888 61.531 1-.535 2.062-1.905 2.36-3.045.434-1.661.178-1.957-1.292-1.491-1.504.477-1.734.17-1.276-1.709.307-1.26 1.199-3.034 1.982-3.942 1.505-1.744.206-3.531-1.706-2.349-.55.34-1-.114-1-1.008 0-1.172.56-1.449 2-.992 2.077.659 2.653-.401 1.112-2.05-.488-.522-1.186-2.075-1.551-3.45-.611-2.299-.55-2.357.769-.721 1.177 1.461 1.532 1.523 1.983.348.302-.788-.08-2.264-.85-3.28-.819-1.081-1.413-1.329-1.431-.597-.018.688-.472 1.25-1.011 1.25-.597 0-.537-.968.153-2.483 1.044-2.29 1.23-2.348 2.404-.75 1.162 1.583 1.366 1.489 2.347-1.082C7.516 95.137 8 93.202 8 92.385c0-.816.692-2.823 1.538-4.459.846-1.636 1.427-3.526 1.29-4.2-.136-.674.295-2.205.957-3.401 1.334-2.408 1.284-7.486-.065-6.652-.471.291-.596 1.209-.277 2.039.389 1.014.118 1.334-.825.972C9.096 76.1 5 79.864 5 81.846c0 .669.747 1.504 1.66 1.854 1.422.545 1.35.752-.5 1.436-1.243.46-2.16 1.663-2.16 2.832C4 89.085 3.583 90 3.073 90c-1.34 0-1.84-3.135-.917-5.75.519-1.469.405-2.25-.329-2.25-.617 0 .406-1.047 2.275-2.327 2.342-1.603 3.324-3 3.161-4.495-.131-1.193.263-2.059.875-1.924.611.135 1.318-.316 1.57-1.004.279-.761-.405-1.25-1.747-1.25-1.874 0-2.013-.232-.926-1.542 1.041-1.255 1.037-1.768-.024-2.75-1.023-.947-1.152-.938-.599.042.443.783.081 1.25-.968 1.25-1.542 0-1.549-.191-.085-2.425 1.192-1.82 1.283-2.549.365-2.921-.844-.342-.782-.521.2-.575 1.007-.056.715-.858-1-2.74-1.333-1.464-1.893-2.357-1.243-1.984.649.373 1.421.288 1.716-.188.294-.476 2.129-.758 4.079-.628 1.949.131 3.791-.162 4.093-.651.482-.779-1.668-1.346-3.819-1.006-.412.065-.75-.502-.75-1.26s-1.012-2.114-2.25-3.013.225-.391 3.25 1.128c3.025 1.52 6.048 3.438 6.718 4.263 1.07 1.317 1.222 1.295 1.25-.182.035-1.859-5.462-6.249-6.795-5.425-.462.285-.84-.093-.84-.842 0-.748.6-1.13 1.334-.849.77.296 1.333-.167 1.333-1.095 0-1.891 2.092-2.115 3.8-.407.933.933 1.2.867 1.2-.3 0-.825-.498-1.998-1.107-2.607-.81-.81-.516-1.424 1.094-2.286 1.977-1.058 2.137-.974 1.567.823-.812 2.56.828 3.62 2.494 1.612 1.02-1.229 1.44-1.277 2.098-.239.634.999.827 1.01.839.047.008-.687.91-1.25 2.004-1.25 2.078 0 13.951-11.598 13.989-13.667.012-.641.585-1.393 1.272-1.671 1-.403 1-.52 0-.583-.687-.043-1.25-.577-1.25-1.186 0-.639.739-.828 1.75-.446 1.636.618 1.641.551.077-1.03-1.117-1.13-1.391-2.227-.823-3.304 1.462-2.775 2.319-5.564 2.11-6.863-.111-.687.216-1.25.726-1.25.509 0 1.185-.987 1.5-2.194.561-2.143.621-2.151 2.617-.345 1.907 1.726 2.043 1.732 2.043.1 0-.961-.875-1.977-1.944-2.257-1.734-.453-1.544-.889 1.75-4.026 2.293-2.183 2.966-3.27 1.774-2.864-1.121.382-2.265.12-2.75-.63-.66-1.02-1.051-.976-1.906.216-.81 1.129-1.202 1.191-1.583.25C45.956.301 40.31 0 22.903 0H-.027zM55 1.389c0 1.64 5.887 2.968 8.616 1.944 1.673-.628 1.728-.516.491 1.004-.765.941-1.122 1.981-.793 2.311.953.952 3.878-.528 3.203-1.62-.335-.543-.123-1.896.472-3.007C68.023.089 67.783 0 61.535 0 56.626 0 55 .345 55 1.389M195 1.5c0 .825.45 1.5 1 1.5s1-.675 1-1.5-.45-1.5-1-1.5-1 .675-1 1.5m3 1.5c0 1.65.381 3 .847 3 .466 0 1.336 1.013 1.933 2.25.596 1.238 1.115 1.688 1.152 1 .038-.687.729-1.25 1.537-1.25.848 0 1.241.592.931 1.4-.342.89.086 1.346 1.174 1.25.941-.082 1.903.393 2.137 1.056.274.776-.356 1.055-1.767.783-2.121-.408-2.135-.357-.414 1.544.979 1.082 2.637 1.967 3.684 1.967 1.047 0 1.626.45 1.286 1-.34.55-.198 1 .316 1 1.276 0 1.212-5.194-.084-6.792-.743-.917-.675-1.644.235-2.5 1.014-.955 1.178-.894.783.292-.275.825.68 2.766 2.123 4.314 2.085 2.237 2.231 2.663.711 2.08-1.212-.465-1.68-.358-1.278.292.349.564 1.147 2.328 1.774 3.92 1.054 2.675 1.202 2.743 1.96.894.655-1.6.833-1.664.89-.323.038.923 1.195 2.563 2.57 3.644 3.496 2.75 3.257 4.504-.5 3.679-1.887-.415-3-.259-3 .421 0 .593 1.398 1.079 3.107 1.079 2.226 0 2.957.39 2.579 1.376-.327.851.109 1.327 1.143 1.25 1.124-.085 1.645.61 1.592 2.124-.104 2.927 1.344 2.927 1.759 0 .207-1.457.91-2.152 1.995-1.973.921.152 1.96-.186 2.309-.75.854-1.384 2.646-1.244 4.776.372 1.504 1.142 1.576 1.682.5 3.722-.8 1.514-2.082 2.343-3.51 2.269-2.933-.152-2.849.993.25 3.431 2.815 2.215 3.307 3.703.921 2.787-1.316-.505-1.465-.065-.892 2.643.378 1.787 1.538 4.178 2.579 5.313 1.041 1.136 1.892 2.598 1.892 3.25 0 .653.477 1.186 1.059 1.186s.805.412.494.915c-.311.503-.225 1.065.191 1.25.416.184 2.443 3.71 4.505 7.835s3.749 7.107 3.75 6.628c.001-.48.676-.313 1.501.372.825.685 1.5 2.301 1.5 3.591 0 1.578.45 2.174 1.372 1.82.994-.382 1.247.133.916 1.864-.327 1.708-.005 2.392 1.127 2.392 1.421 0 1.585-4.278 1.585-41.334V0h-58zM42.5 2c.34.55 1.068 1 1.618 1s.722-.45.382-1c-.34-.55-1.068-1-1.618-1s-.722.45-.382 1m16.5.059c0 .582.45.781 1 .441s1-.816 1-1.059S60.55 1 60 1s-1 .477-1 1.059m125-.118c0 .518.445 1.216.989 1.552.566.35.734-.051.393-.941C184.717.82 184 .503 184 1.941M209.5 2c-.782 1.266.542 1.266 2.5 0 1.293-.835 1.266-.971-.191-.985-.93-.008-1.969.435-2.309.985m-139.75.662c.688.278 1.813.278 2.5 0 .688-.277.125-.504-1.25-.504s-1.937.227-1.25.504m122.063.021c.721.289 1.584.253 1.916-.079.332-.332-.258-.568-1.312-.525-1.165.048-1.402.285-.604.604M50.565 5.895c-.305.493.182 1.178 1.082 1.523C53.615 8.173 57 7.234 57 5.933c0-1.194-5.7-1.227-6.435-.038m145.102.772c-.932.932-.832 2.333.166 2.333.459 0 .834-.675.834-1.5 0-1.699-.073-1.76-1-.833m-139 2C55.516 9.817 55.938 11 57.5 11c.825 0 1.5-.675 1.5-1.5 0-1.562-1.183-1.984-2.333-.833M41 10c0 .55.9 1 2 1s2-.45 2-1-.9-1-2-1-2 .45-2 1m20.603-.167c-.283.459.12.834.897.834s1.18-.375.897-.834C63.114 9.375 62.71 9 62.5 9c-.21 0-.614.375-.897.833m158.21-.15c.721.289 1.584.253 1.916-.079.332-.332-.258-.568-1.312-.525-1.165.048-1.402.285-.604.604M235.158 11c0 1.375.227 1.938.504 1.25.278-.687.278-1.812 0-2.5-.277-.687-.504-.125-.504 1.25M36.482 12.029c-.515.833 1.852 1.971 4.1 1.971.78 0 1.418-.398 1.418-.883 0-1.133-4.894-2.097-5.518-1.088m14.701 1.188c-1.4 1.4-1.545 2.783-.29 2.783.916 0 2.425-3.016 1.814-3.626-.187-.188-.873.192-1.524.843M218.5 14.531c3.085 2.529 4.5 3.058 4.5 1.685 0-.88-5.342-4.236-6.654-4.18-.465.02.504 1.143 2.154 2.495m14-1.531c-.34.55-.141 1 .441 1S234 13.55 234 13s-.198-1-.441-1-.719.45-1.059 1M46.035 16.934C45.466 17.998 45 19.828 45 21.002c0 1.745.409 2.01 2.25 1.458 2.742-.822 5.764-3.46 3.964-3.46-.668 0-1.214.45-1.214 1s-.9 1-2 1c-2.309 0-2.319-.032-1.025-3.435 1.146-3.013.549-3.413-.94-.631m-6.528.055c-.35.566.051.734.941.393 1.732-.665 2.049-1.382.611-1.382-.518 0-1.216.445-1.552.989m182.037 4.751c1.626 1.667 3.133 2.869 3.349 2.67.614-.566-2.013-3.404-4.267-4.61-1.403-.751-1.117-.147.918 1.94m6.456-.157c0 1.766 2.153 1.459 2.771-.395.218-.654-.317-1.188-1.188-1.188-.87 0-1.583.712-1.583 1.583M27.731 32.92c-.435 1.663-.305 2.054.437 1.312.582-.582.86-1.647.62-2.369-.25-.749-.703-.295-1.057 1.057m202.839.966c-.301.488.314 1.112 1.366 1.387 1.34.351 1.755.085 1.382-.886-.604-1.575-1.934-1.817-2.748-.501m9.46 11.356c-.016.957-.93 2.303-2.03 2.99-2.353 1.469-2.604 2.768-.535 2.768.805 0 1.985.972 2.621 2.16 1.033 1.932 1.254 1.984 2.084.5.511-.913 1.993-1.66 3.293-1.66 2.211 0 2.29-.193 1.231-3-1.059-2.804-3.422-4.477-2.473-1.75.239.688-.399 2.049-1.418 3.025-1.786 1.711-1.831 1.687-1.238-.677.338-1.349.139-3.273-.444-4.276-.978-1.681-1.063-1.687-1.091-.08M14.976 48.954C15.578 50.079 16.505 51 17.035 51c1.637 0 1.069-1.454-1.095-2.805-1.902-1.188-1.976-1.13-.964.759m5.691-.287c-.367.366-.667 1.131-.667 1.7 0 .626.466.567 1.183-.15.651-.651.951-1.416.667-1.7-.284-.284-.817-.217-1.183.15m85.833 6.787c-11.217 1.762-23.249 5.028-35.432 9.618-18.216 6.863-30.774 16.814-36.427 28.866-2.597 5.536-3.141 8.047-3.48 16.062-.393 9.302-.465 9.542-3.448 11.5-5.874 3.857-7.213 6.794-7.213 15.823 0 9.119 2.195 14.306 6.975 16.484 2.181.993 2.528 1.801 2.547 5.922.074 16.171 15.259 28.49 46.978 38.112 6.476 1.965 6.485 1.973 2.5 2.184-2.2.117-4.596.131-5.324.033-.728-.099-1.969.355-2.757 1.009-.944.784-3.128.964-6.411.528-4.623-.613-8.28.512-11.008 3.386-1.003 1.056-6 1.132-6 .091 0-.59.536-.959 1.191-.822.654.138 1.362-.536 1.572-1.496.53-2.421-2.489-1.193-3.292 1.338-.333 1.05-1.074 1.908-1.645 1.908-.572 0-.786-.661-.477-1.468.31-.807.133-1.734-.393-2.059-.526-.325-.956.301-.956 1.391 0 1.858-.184 1.891-2.928.522-1.69-.843-3.993-1.193-5.449-.828-2.196.552-2.367.88-1.324 2.549.658 1.054 1.76 1.7 2.449 1.436.689-.264 1.252-.027 1.252.526 0 .554-1.237.877-2.75.719-2.102-.22-2.717.124-2.611 1.462.076.963-.261 1.75-.75 1.75s-.921-1.012-.959-2.25c-.066-2.104-.121-2.122-.841-.278-.692 1.77-.824 1.694-1.291-.75-.286-1.497-.133-2.722.341-2.722.473 0 .861-.505.861-1.122 0-.761-.498-.71-1.546.16-.85.705-1.314 1.885-1.031 2.622.283.737.078 1.34-.454 1.34-.533 0-.969-.643-.969-1.429 0-.785-.787-2.223-1.75-3.194-1.652-1.667-1.653-1.728-.012-1.107 1.324.501 1.668.196 1.443-1.28-.163-1.066-.68-2.288-1.149-2.714-.469-.427-.529-.213-.133.474.395.688.299 1.25-.215 1.25s-.934-1.133-.934-2.519c0-2.171.224-2.346 1.625-1.267 1.232.949 1.192.743-.165-.854-1.737-2.044-1.723-2.126.5-2.791 2.206-.66 2.217-.715.29-1.478-1.1-.436-2.007-1.197-2.015-1.692-.032-1.836-1.661-3.399-3.544-3.399-1.068 0-1.941-.413-1.941-.918 0-.505-.273-1.63-.607-2.5-.398-1.038-.055-1.582 1-1.582.884 0 1.607-.477 1.607-1.059s-.45-.781-1-.441c-.887.548-1.488-1.555-1.094-3.824.079-.454-.325-.535-.898-.181-.572.354-.782 1.062-.465 1.574 1.083 1.753-.247.93-3.459-2.139-2.23-2.131-2.916-3.431-2.242-4.25.828-1.005 1.588-6.418 1.259-8.965-.055-.432-.954-.329-1.996.229-1.407.753-2.211.633-3.122-.465C6.307 161.666 6.09 161 6.5 161c.41 0 .221-.631-.419-1.403-.894-1.077-.865-1.523.127-1.921 1.044-.419 1.041-.533-.017-.597-.72-.043-1.031-.529-.691-1.079.34-.55.141-1-.441-1S4 154.362 4 153.583s-.53-1.593-1.177-1.809C1.088 151.196 2.811 149 5 149c2.433 0 3.051-1.088 2.284-4.023-.579-2.213-.67-2.241-1.382-.423-.617 1.578-.775 1.372-.832-1.086-.059-2.571-.488-3.063-2.82-3.24-1.874-.142-2.318.067-1.393.657.917.585 1.007 1.081.279 1.531-.749.463-1.09 17.894-1.119 57.125L-.025 256h42.453c27.3 0 42.675-.358 43.074-1.003.414-.67 1.241-.67 2.493 0 2.505 1.341 17.329 1.337 16.5-.005-.36-.582.458-.515 1.941.161 1.912.871 3.19.883 5.028.045 1.546-.704 2.686-.764 3.059-.16.327.529 1.581.926 2.786.883 1.467-.053 1.695-.261.691-.63-.825-.304-2.287-1.238-3.25-2.076-1.09-.95-1.75-1.094-1.75-.382 0 .995-1.666 1.059-7.309.279-.445-.062-.552-.528-.238-1.036.314-.509-.222-1.131-1.191-1.384-1.308-.341-1.167-.49.547-.576 1.31-.066 2.034-.562 1.672-1.147-.362-.585-2.055-.764-3.919-.415-2.498.469-3.432.227-3.908-1.012-.497-1.295-1.036-1.408-2.639-.55-1.603.858-2.015.772-2.015-.418 0-1.744-6.012-3.481-10.5-3.035-1.65.164-3.9.371-5 .459-1.107.088-1.442.385-.75.664.688.278 1.25.969 1.25 1.536 0 .568-1.094.315-2.431-.561-2.247-1.472-2.465-1.462-2.884.135-.334 1.273-.484 1.136-.569-.522-.064-1.238-.614-2.25-1.223-2.25-.609 0-.848.675-.531 1.5.357.932-.006 1.5-.961 1.5-1.058 0-1.347-.596-.928-1.916.335-1.054.064-2.252-.602-2.664-.833-.515-1.012-.229-.572.916.429 1.118.121 1.664-.937 1.664-.99 0-1.362-.558-1-1.5.316-.825.187-1.5-.286-1.5-.474 0-1.121.675-1.438 1.5-.316.825-.113 1.5.452 1.5.566 0 .75.45.41 1-.948 1.534-2.5 1.187-2.5-.559 0-.857-.449-1.281-.998-.942-.549.339-2.012-.133-3.25-1.049l-2.252-1.666 3 .623c2.739.569 2.842.499 1.18-.803-1.759-1.379-1.759-1.463 0-2.529 1.521-.921 1.327-1.017-1.18-.583-1.65.286-2.437.255-1.75-.069 2.231-1.052 1.322-2.154-1.5-1.82-1.512.179-1.939.079-.947-.222 1.52-.462 1.599-.8.5-2.152-1.094-1.347-1.063-1.514.197-1.044 1.06.396 1.5-.112 1.5-1.729 0-1.259-.181-2.109-.401-1.888-.221.22-.994-.38-1.718-1.334-.725-.953-1.332-1.224-1.349-.601-.018.624-1.117 1.341-2.443 1.595-2.64.504-6.127-2.548-4.998-4.374.398-.645-.206-.595-1.556.127-1.213.65-2.464.923-2.779.609-.314-.315-1.176-.071-1.914.541-1.694 1.406-1.773-.297-.092-1.99 1.002-1.01.917-1.133-.427-.621-1.319.502-1.561.195-1.133-1.441.299-1.143.967-2.079 1.486-2.079.518 0 .693-.403.389-.895-.305-.493.119-1.153.941-1.469.822-.315 1.494-.137 1.494.395 0 .533.436.969.969.969.532 0 .727-.629.431-1.399-.295-.769.014-1.739.686-2.154.673-.416.968-.343.656.161-.311.504.046 2.036.795 3.405l1.361 2.487-.199-3c-.159-2.39.208-3.007 1.801-3.035 1.1-.019 2.258.33 2.573.774.893 1.257 4.927 1.769 4.927.625 0-.561 1.463-.92 3.25-.797 5.665.39 7.109.071 5.957-1.317-.795-.959-.238-1.25 2.389-1.25 2.33 0 3.273.4 2.946 1.25-.572 1.491-.025 1.536 4.139.341 1.743-.499 3.411-.665 3.708-.368.297.297 3.579.742 7.292.989 3.714.247 7.522.861 8.463 1.365 2.237 1.197 68.602.959 71.819-.258 1.355-.513 5.694-1.019 9.642-1.125 3.947-.107 6.975-.532 6.727-.944-.807-1.345 1.678-.79 4.377.979 1.879 1.231 2.753 1.385 3.036.536.307-.92.846-.915 2.357.021 1.555.964 2.126.947 2.767-.083.644-1.035 1.067-.985 2.092.25 1.64 1.976 3.152 2.006 2.401.047-.368-.957.017-1.5 1.062-1.5.902 0 1.897.672 2.212 1.494.316.822.976 1.246 1.469.941.492-.304.895-.05.895.565s.508.804 1.128.421c.77-.476.604-.991-.521-1.621-2.184-1.222-1.149-2.755 1.409-2.086 1.548.405 1.87.152 1.392-1.093-.342-.892-.16-1.621.406-1.621.565 0 1.324 1.354 1.688 3.009.363 1.655 1.054 2.765 1.536 2.468.481-.298.743-1.089.582-1.759-.161-.67-.103-.878.129-.462.232.416.855.489 1.385.161.593-.366.513-1.138-.208-2.006-1.419-1.71.664-1.944 4.277-.48 1.263.512 3.553 1.2 5.088 1.529 3.379.725 2.769 2.148-1.302 3.043-1.644.361-2.989 1.07-2.989 1.576 0 1.298.539 1.183 5.29-1.124 2.547-1.237 3.443-1.435 2.269-.5-1.068.85-2.305 1.545-2.75 1.545-.445 0-.756.338-.691.75.066.412.066 1.607 0 2.655-.115 1.86-.166 1.861-2.179.04-1.657-1.5-2.223-1.603-2.888-.527-.455.736-1.339 1.022-1.964.636-.625-.387-1.072-.332-.993.122.425 2.451-.385 3.324-3.086 3.324-1.908 0-3.443.724-4.24 2-.687 1.1-1.848 2-2.58 2-1.002 0-.941.39.25 1.581 1.605 1.605 1.196 3.929-.507 2.876-.512-.316-.931-.029-.931.639 0 .791-.637.638-1.829-.441-1.006-.91-3.428-1.655-5.383-1.655-3.074 0-3.632.372-4.123 2.75-.446 2.162.006 3.225 2.111 4.969l2.679 2.219-4.664-.219c-2.935-.138-4.317-.571-3.728-1.169 1.227-1.244 1.214-6.55-.016-6.55-2.785 0-5.977 2.676-7.891 6.616-3.032 6.241-2.737 6.771 2.094 3.762l4.25-2.648-2.408 2.618c-1.325 1.44-3.35 2.938-4.5 3.33-1.889.643-1.801.779.908 1.399l3 .686-2.872.119c-2.462.101-2.691.337-1.602 1.65 1.121 1.35.928 1.404-1.627.453-1.595-.593-5.737-2.52-9.205-4.282-5.496-2.792-6.459-3.011-7.503-1.703-1.625 2.035-3.573 2.321-5.546.815-.905-.69-.54-.015.811 1.499 1.927 2.161 3.038 2.627 5.155 2.162 1.484-.326 2.993-.117 3.353.465.58.94-1.858 1.521-4.98 1.187-.558-.059-1.575.787-2.258 1.882-1.184 1.895-.984 1.99 4.207 1.99 2.997 0 5.727-.45 6.067-1 .34-.55 1.154-.993 1.809-.985.717.01.594.404-.309.991-.984.641 13.452.893 42 .735l43.5-.241.259-52.233.259-52.232-2.509 1.143c-1.38.629-2.509 1.971-2.509 2.983 0 1.011-.675 1.839-1.5 1.839s-1.5-.702-1.5-1.559-.474-1.266-1.053-.908c-.579.357-.865 1.172-.635 1.809.23.637-.024 2.014-.563 3.06-.833 1.613-.698 1.793.885 1.188 1.536-.588 1.469-.343-.384 1.387-1.238 1.156-2.25 2.497-2.25 2.98 0 1.94 1.285 4.043 2.47 4.043 1.733 0 1.371 3.86-.47 5.022-1.972 1.246-3.276 1.234-2.5-.022.793-1.284-.125-1.271-2.566.035-1.064.57-1.934 1.968-1.934 3.107 0 1.431-.464 1.894-1.5 1.496-2.288-.878-1.79.126.956 1.925 1.351.885 2.974 1.289 3.607.898.837-.517.781-.95-.206-1.586-1.125-.726-1.101-1.043.143-1.86.825-.541 1.776-.991 2.113-1 .995-.025.478 3.995-.613 4.773-1.484 1.057-3.72 5.326-3.109 5.936.792.792-2.35 6.42-3.267 5.853-.435-.269-.791.142-.791.913 0 1.05.461 1.155 1.834.421 2.485-1.33 2.307-.714-.747 2.581-1.558 1.681-2.388 3.522-2.094 4.645.267 1.024.078 2.113-.42 2.421-.498.308-.906-.314-.906-1.382 0-1.102-.866-2.169-2-2.466-1.1-.287-2-.115-2 .384 0 .498-.45.906-1 .906s-1-.675-1-1.5.338-1.411.75-1.302c1.286.34 5.25-1.29 5.25-2.158 0-.92-1.961-1.852-3.5-1.663-.55.068-.887.461-.75.873.138.412-.68.75-1.817.75-1.613 0-1.928.44-1.433 2 .45 1.419.18 2-.933 2-1.024 0-1.594.953-1.646 2.75l-.079 2.75-1.004-2.75c-.553-1.512-1.305-2.807-1.671-2.878-2.973-.569-5.303-.461-5.753.267-.295.478-1.634.593-2.975.256-1.855-.465-2.439-.212-2.439 1.056 0 1.028-.453 1.387-1.183.936-.65-.402-3.463-.831-6.25-.953-2.787-.123-7.317-.522-10.067-.889-11.872-1.581-19.085-2.22-20.25-1.791-.687.253-1.25.229-1.25-.054 0-.283 5.063-2.114 11.25-4.069 28.358-8.96 40.174-18.89 42.294-35.543.544-4.282 1.298-5.926 3.608-7.869 4.373-3.68 6.175-7.942 6.222-14.719.05-7.265-2.517-13.132-7.001-16-2.617-1.674-3.226-2.814-3.732-6.994-.332-2.747-1.071-5.149-1.641-5.339-.569-.19-1.703-1.013-2.518-1.828-1.309-1.309-1.482-.551-1.482 6.508 0 9.745.355 10.753 4.47 12.706 4.044 1.919 5.53 5.062 5.53 11.693 0 4.89-.254 5.391-5 9.846-4.784 4.491-5.001 4.926-5.022 10.051-.013 3.076-.813 7.06-1.881 9.357-6.228 13.403-30.936 23.889-64.927 27.555-14.875 1.604-50.24.719-63.17-1.58-19.444-3.459-35.447-10.072-44.209-18.267-6.268-5.863-7.902-9.045-8.26-16.085-.365-7.165-1.033-8.674-4.469-10.097-3.931-1.629-5.501-5.196-5.35-12.153.143-6.548.961-8.01 6.408-11.449l3.649-2.303.402-10.311c.333-8.518.866-11.313 3.07-16.08 9.145-19.787 43.71-34.834 84.259-36.68 8.8-.4 15.003-.801 13.785-.889-2.23-.162-4.757-3.356-3.583-4.53 1.099-1.098-19.861-.487-28.202.823M5.346 58.248c-.362.586-.185.771.395.412.577-.357 1.307.024 1.623.846C7.679 60.328 8.612 61 9.437 61c2.098 0 .876-2.685-1.505-3.308-1.062-.277-2.225-.027-2.586.556m7.196.82c.363.588 1.29.827 2.059.532.77-.296 1.399-.075 1.399.49 0 .566.457.745 1.016.4 1.639-1.013.076-2.49-2.634-2.49-1.518 0-2.241.419-1.84 1.068m232.468-.074c-1.782.423-2.118.821-1.182 1.4.72.445 1.086 1.388.814 2.097-.325.848.317 1.241 1.88 1.149 2.604-.154 3.813-2.608 2.077-4.219-.605-.56-2.219-.753-3.589-.427M13.665 63.173c-.436 1.669-.286 1.758 1.067.634.867-.719 1.694-1.082 1.838-.807.145.275.544.22.886-.123.343-.343-.256-.853-1.33-1.134-1.354-.354-2.109.085-2.461 1.43m-5.206.894c-1.139 1.842.371 2.246 2.065.552C11.922 63.221 11.936 63 10.63 63c-.831 0-1.809.48-2.171 1.067M10.5 68c-.34.55-.168 1 .382 1s1.278-.45 1.618-1c.34-.55.168-1-.382-1s-1.278.45-1.618 1m94 4.475c-14.054 2.652-29.397 9.232-37.162 15.936-2.289 1.977-5.326 5.931-6.75 8.788-6.052 12.144-1.013 23.991 13.285 31.237 9.414 4.77 21.108 7.61 56.127 13.631 11.675 2.008 16.703 3.986 15.417 6.067-.294.476-.049.866.544.866.609 0 .172 1.78-1.003 4.082-1.707 3.347-3.282 4.643-8.751 7.202-3.669 1.717-7.353 3.213-8.189 3.326-.835.112-4.668.833-8.518 1.602-6.986 1.396-13.102 1.512-19.251.365-4.67-.87-14.476-4.598-16.328-6.206-.868-.754-1.91-1.371-2.314-1.371-.779 0-5.501-5.265-6.984-7.786-.599-1.018-.36-1.781.75-2.403 1.801-1.008 2.197-2.811.617-2.811-1.553 0-23.26 10.952-25.24 12.735-4.519 4.067-.535 9.032 12.823 15.982 9.663 5.027 21.2 8.496 35.957 10.812 13.49 2.117 41.786 1.593 56.47-1.046 29.004-5.212 48.785-18.847 49.665-34.235.297-5.202.221-5.463-.805-2.748-.624 1.65-1.23 3.121-1.348 3.268-.118.147-1.519-.413-3.113-1.244-1.595-.831-3.461-1.514-4.149-1.518-.687-.003-1.25-.504-1.25-1.113s-.617-.87-1.371-.581c-.753.289-2.891-.702-4.75-2.203-1.858-1.502-5.179-3.803-7.379-5.114-2.2-1.312-4.36-2.972-4.8-3.69-.44-.718-1.452-1.305-2.25-1.305-.797 0-1.45-.525-1.45-1.167 0-.641-.287-.88-.637-.529-.351.35-1.813-.187-3.25-1.193-2.417-1.693-5.187-3.025-12.41-5.97-1.538-.628-3.66-1.141-4.715-1.141-1.055 0-4.024-1.336-6.598-2.968-5.528-3.505-11.425-5.537-20.546-7.079-5.044-.853-6.772-1.571-7.137-2.965-.348-1.333.356-2.186 2.557-3.097 2.666-1.105 2.806-1.345 1.137-1.965-1.683-.625-1.572-.835.968-1.836 9.487-3.739 23.645-3.148 35.184 1.468 6.524 2.61 13.21 3.14 16.763 1.328 4.373-2.229 12.684-8.243 12.684-9.177 0-.536-1.347-.69-3.05-.349-1.891.378-2.818.236-2.441-.375.99-1.602-2.229-1.122-3.938.586-1.368 1.369-1.571 1.378-1.571.068 0-.827.959-1.809 2.132-2.181 1.642-.521 1.82-.87.773-1.517-.85-.525-2.023-.239-3.132.765-1.959 1.773-2.484.405-.577-1.502.929-.929.761-1.533-.75-2.697-1.07-.826-2.718-1.324-3.662-1.107-.944.217-1.619-.121-1.5-.753.127-.674-.768-1.008-2.172-.811-1.313.185-2.741-.236-3.173-.936-.636-1.027-1.084-1.025-2.335.014-1.273 1.056-1.82 1.013-3.076-.243-.84-.841-1.528-2.048-1.528-2.683 0-.635-.562-.956-1.25-.714-.687.243-1.204 1.084-1.147 1.869.057.786-.719 1.428-1.724 1.428-1.675 0-1.702-.192-.331-2.285.824-1.257 1.038-2.286.475-2.286-.563 0-1.023.436-1.023.969 0 .532-.629.727-1.399.431-.769-.295-1.696-.056-2.059.532-.363.587-1.139 1.068-1.723 1.068-.664 0-.588-.574.201-1.524.696-.838.914-1.851.486-2.25-.429-.399-.972-.189-1.208.468-.235.656-1.073.946-1.863.643-1.768-.679-1.864-2.043-.185-2.62.688-.237.412-.299-.611-.138-1.024.161-2.824-.609-4-1.71-1.177-1.1-3.489-2.609-5.139-3.352-4.455-2.007-21.712-2.606-30-1.042m54.515 10.216c.009.445.452 1.484.985 2.309.835 1.293.971 1.266.985-.191.008-.93-.435-1.969-.985-2.309-.55-.34-.993-.254-.985.191M254 84.882c0 .55.45 1.278 1 1.618.55.34 1 .168 1-.382s-.45-1.278-1-1.618c-.55-.34-1-.168-1 .382M166 91c0 .55.477 1 1.059 1s.781-.45.441-1-.816-1-1.059-1-.441.45-.441 1m88.564.707c-.542 1.425-.428 1.54.56.56.684-.679.991-1.486.683-1.793-.308-.308-.867.247-1.243 1.233m-.987 4.043c.316 1.277.096 2.25-.51 2.25-1.664 0-1.253 2.715.515 3.393 2.405.923 2.419.901 2.403-3.643-.01-2.776-.315-3.777-.879-2.887-.729 1.151-.959 1.151-1.476 0-.336-.75-.36-.35-.053.887M178.5 99c.34.55 1.068 1 1.618 1s.722-.45.382-1c-.34-.55-1.068-1-1.618-1s-.722.45-.382 1M3.964 116.164c-1.145 2.233-1.118 2.26.61.61.994-.95 1.533-2.001 1.197-2.336-.335-.335-1.148.442-1.807 1.726m250.13 1.223c-.818.985-.86 1.639-.135 2.087.58.359 1.333-.07 1.672-.954.844-2.2-.084-2.884-1.537-1.133m.156 6.338c-1.632 3.492-1.579 4.615.185 3.938.79-.303 1.654-.013 1.921.643.722 1.773.549-2.451-.206-5.03-.641-2.194-.667-2.188-1.9.449M1.015 127.25c.013 1.819.201 1.963.985.75 1.253-1.939 1.253-3 0-3-.55 0-.993 1.013-.985 2.25M3 130.686c0 1.613.661 3.805 1.468 4.873 1.379 1.823 1.47 1.72 1.5-1.687.018-2.039-.625-4.172-1.468-4.872-1.275-1.058-1.5-.806-1.5 1.686m-3 1.703c0 1.46 3.909 6.694 3.967 5.311.044-1.068-2.891-6.7-3.493-6.7-.261 0-.474.625-.474 1.389m254.583.477c-.431.697-.513 1.537-.183 1.867.895.895 1.871-.421 1.387-1.871-.338-1.016-.574-1.016-1.204.004m-4.023 6.752c-.811 3.231-.711 3.33 2.69 2.677 2.083-.4 2.75-1.106 2.75-2.912 0-3.561-4.537-3.365-5.44.235m2.107 5.049c-1.211 1.211-.693 2.557.768 1.996.79-.303 1.654-.013 1.921.643.268.657.522.182.565-1.056.075-2.13-1.797-3.041-3.254-1.583M.446 204c.028 46.712.062 47.824.304 10.086l.272-42.414 2.489 2.338C4.88 175.296 6 176.063 6 175.715c0-.349-1.108-1.665-2.463-2.925-2.226-2.07-2.494-3.203-2.792-11.79-.181-5.225-.316 14.125-.299 43M3 157c0 .55.477 1 1.059 1s.781-.45.441-1-.816-1-1.059-1-.441.45-.441 1m239.182 12.5c-.929 2.04-.873 2.5.308 2.5.939 0 1.223-.584.809-1.664-.427-1.111-.254-1.426.52-.948.756.468.952.178.563-.836-.778-2.027-.861-1.992-2.2.948m7.818 1.385c0 .897 3.005 2.443 3.598 1.851.171-.172-.568-.861-1.643-1.532-1.075-.672-1.955-.815-1.955-.319M6.079 172.583c.048 1.165.285 1.402.604.605.289-.722.253-1.585-.079-1.917-.332-.332-.568.258-.525 1.312M8 176c0 .55.423 1 .941 1s1.219-.45 1.559-1c.34-.55-.084-1-.941-1S8 175.45 8 176m-4 2c.589 1.1 1.295 2 1.57 2 .275 0 .019-.9-.57-2s-1.295-2-1.57-2c-.275 0-.019.9.57 2m233.419 6.582c.642 2.048 1.408 2.991 1.973 2.426.564-.564.426-1.522-.357-2.466-1.041-1.254-1.039-1.542.009-1.542 1.568 0 .412-1.316-1.388-1.58-1.005-.147-1.057.542-.237 3.162M252.5 182c-.34.55.11 1 1 1s1.34-.45 1-1c-.34-.55-.79-1-1-1-.21 0-.66.45-1 1m-12.847 18.831c-1.585 1.752-1.329 3.169.573 3.169.49 0 .572-.518.18-1.152-.391-.633.118-1.758 1.132-2.5 1.015-.741 1.378-1.348.808-1.348-.57 0-1.782.824-2.693 1.831M219.5 202c.34.55.816 1 1.059 1s.441-.45.441-1-.477-1-1.059-1-.781.45-.441 1M27 203.059c0 .582.45.781 1 .441s1-.816 1-1.059-.45-.441-1-.441-1 .477-1 1.059m-4 4c0 .582.45.781 1 .441s1-.816 1-1.059-.45-.441-1-.441-1 .477-1 1.059m199.505.933c-.337.546-.153 1.783.41 2.75.879 1.508 1.029 1.367 1.055-.992.031-2.876-.431-3.431-1.465-1.758m12.216.292c-.427 1.114-1.238 1.455-2.4 1.009-1.561-.599-1.593-.495-.288.94 1.22 1.343 1.697 1.392 2.833.289.751-.729 1.171-1.91.934-2.623-.308-.922-.62-.81-1.079.385m-217.063 1.165c-.371.967-.076 1.265.887.895.794-.304 1.195-.956.89-1.449-.766-1.24-1.132-1.126-1.777.554M33 210c0 .55.702 1 1.559 1s1.281-.45.941-1c-.34-.55-1.041-1-1.559-1s-.941.45-.941 1m187.5 1c-.34.55-.141 1 .441 1s1.059-.45 1.059-1-.198-1-.441-1-.719.45-1.059 1M58 217c0 .55.477 1 1.059 1s.781-.45.441-1-.816-1-1.059-1-.441.45-.441 1m-14 5.059c0 .582.45.781 1 .441s1-.816 1-1.059-.45-.441-1-.441-1 .477-1 1.059m161.72 1.273c-1.009 2.567-.961 2.668 1.28 2.668 1.1 0 2-.477 2-1.059s-.416-.802-.924-.488c-.509.314-1.084-.222-1.28-1.191-.332-1.649-.401-1.644-1.076.07m-6.032 4.4c-4.745.493-4.414 2.603.428 2.727 2.665.068 3.524-.331 3.626-1.685.074-.976.049-1.698-.054-1.606-.103.093-1.903.346-4 .564M62 232.059c0 .582.45.781 1 .441s1-.816 1-1.059-.45-.441-1-.441-1 .477-1 1.059m147.195 3.441c.02 1.65.244 2.204.498 1.231.254-.973.237-2.323-.037-3-.274-.677-.481.119-.461 1.769m7.443 1c.317.825.753 1.5.969 1.5.216 0 .393-.675.393-1.5s-.436-1.5-.969-1.5c-.532 0-.709.675-.393 1.5M65 237c0 .55.477 1 1.059 1s.781-.45.441-1-.816-1-1.059-1-.441.45-.441 1m129.5 0c-.34.55-.168 1 .382 1s1.278-.45 1.618-1c.34-.55.168-1-.382-1s-1.278.45-1.618 1m-14.572 2.135c-.913 1.706-1.319 1.857-2.02.75-.594-.938-.911-.093-.983 2.615l-.105 4-1.039-3.5c-.572-1.925-1.245-2.935-1.496-2.244-.251.691-.945.954-1.543.584-.598-.369-.335.403.585 1.717 2.388 3.409 2.067 4.652-.577 2.233-1.435-1.312-2.905-1.816-4.058-1.39-1.48.546-1.048 1.073 2.377 2.901 4.316 2.304 6.931 1.767 6.931-1.423 0-.758.374-1.378.832-1.378.458 0 1.316-1.575 1.907-3.5 1.215-3.961.88-4.525-.811-1.365m-116.115.548c.721.289 1.584.253 1.916-.079.332-.332-.258-.568-1.312-.525-1.165.048-1.402.285-.604.604m6 0c.721.289 1.584.253 1.916-.079.332-.332-.258-.568-1.312-.525-1.165.048-1.402.285-.604.604m5.584.483c-.483.782-.19.969.874.56.88-.337 1.768-.108 1.974.51.217.651 1.146.828 2.208.42 2.185-.838 1.919-1.166-1.642-2.019-1.634-.392-2.973-.184-3.414.529m135.836.833c-.656 1.05-.802 2.149-.326 2.443.476.295 1.124-.452 1.44-1.66.751-2.871.361-3.145-1.114-.783m-145.794 6.243c-1.037 1.242-1.266 1.717-.509 1.055.984-.86 1.927-.908 3.309-.169 2.64 1.413 3.178.56.929-1.476-1.732-1.567-1.958-1.531-3.729.59M196 246c0 .55.477 1 1.059 1s.781-.45.441-1-.816-1-1.059-1-.441.45-.441 1m-111 1.559c0 .857.457 1.276 1.016.931.559-.346.758-1.047.441-1.559-.857-1.387-1.457-1.129-1.457.628m2.697.463c-.964 1.377-1.996 1.801-3.23 1.327-1.439-.552-1.675-.333-1.141 1.059.371.966.674 2.484.674 3.374 0 1.2.291 1.327 1.127.491.737-.737 1.935-.82 3.465-.238 1.542.586 2.572.509 3.027-.228.442-.715.232-.833-.582-.33-.972.601-1.179-.188-.878-3.345.434-4.553-.306-5.188-2.462-2.11m51.25 4.617c-.552 1.451-.787 2.854-.524 3.118.264.263.775-.699 1.137-2.139.361-1.44 1.074-2.618 1.584-2.618.531 0 .485.825-.109 1.934-.569 1.064-1.035 2.189-1.035 2.5 0 .311 3.552.566 7.893.566 5.847 0 8.032-.363 8.431-1.402.885-2.307-6.171-3.189-7.791-.974-1.19 1.628-1.33 1.592-1.997-.509-.432-1.363-1.264-2.05-2.094-1.731-.758.291-1.644.098-1.969-.428-1.054-1.706-2.5-1.016-3.526 1.683M198.5 252c-.34.55-.141 1 .441 1s1.059-.45 1.059-1-.198-1-.441-1-.719.45-1.059 1m-78.5 2.5c0 .825.436 1.5.969 1.5.532 0 .709-.675.393-1.5-.317-.825-.753-1.5-.969-1.5-.216 0-.393.675-.393 1.5"/></svg>